<?xml version="1.0" encoding="UTF-8"?>
<!DOCTYPE svg PUBLIC "-//W3C//DTD SVG 1.1//EN" "http://www.w3.org/Graphics/SVG/1.1/DTD/svg11.dtd">
<svg xmlns="http://www.w3.org/2000/svg" version="1.1" width="356px" height="355px" style="shape-rendering:geometricPrecision; text-rendering:geometricPrecision; image-rendering:optimizeQuality; fill-rule:evenodd; clip-rule:evenodd" xmlns:xlink="http://www.w3.org/1999/xlink">
<g><path style="opacity:0.941" fill="#5af0b8" d="M 93.5,-0.5 C 95.8333,-0.5 98.1667,-0.5 100.5,-0.5C 122.036,5.72909 143.703,11.8958 165.5,18C 142.022,24.2446 118.522,30.4113 95,36.5C 72.522,30.2555 50.022,24.0888 27.5,18C 49.4719,11.5088 71.4719,5.34213 93.5,-0.5 Z"/></g>
<g><path style="opacity:0.975" fill="#5af0b8" d="M 252.5,0.5 C 253.586,0.619985 254.253,1.28665 254.5,2.5C 248.34,25.476 242.34,48.476 236.5,71.5C 184.051,84.6957 131.718,98.3623 79.5,112.5C 79.1667,112.167 78.8333,111.833 78.5,111.5C 84.8679,88.0203 91.5346,64.687 98.5,41.5C 150.031,28.119 201.365,14.4523 252.5,0.5 Z"/></g>
<g><path style="opacity:0.971" fill="#5af0b8" d="M 260.5,0.5 C 284.547,6.29293 308.547,12.2929 332.5,18.5C 326.495,42.1843 320.329,65.8509 314,89.5C 313.439,90.0219 312.772,90.3552 312,90.5C 288.972,84.1603 265.972,77.827 243,71.5C 248.347,47.7789 254.18,24.1122 260.5,0.5 Z"/></g>
<g><path style="opacity:0.97" fill="#5af0b8" d="M 19.5,22.5 C 43.5,28.5 67.5,34.5 91.5,40.5C 85.8673,64.5313 79.534,88.3647 72.5,112C 48.8565,106.339 25.1898,100.506 1.5,94.5C 7.29293,70.4534 13.2929,46.4534 19.5,22.5 Z"/></g>
<g><path style="opacity:0.941" fill="#5af0b8" d="M 355.5,92.5 C 355.5,94.8333 355.5,97.1667 355.5,99.5C 349.502,121.151 343.335,142.817 337,164.5C 330.522,141.253 324.355,117.92 318.5,94.5C 324.358,71.7344 330.524,49.0677 337,26.5C 343.18,48.5608 349.347,70.5608 355.5,92.5 Z"/></g>
<g><path style="opacity:0.919" fill="#5af0b8" d="M 232.5,77.5 C 234.144,77.2865 235.644,77.6198 237,78.5C 239.835,89.1723 242.668,99.839 245.5,110.5C 222.809,105.659 200.142,99.8256 177.5,93C 195.85,87.6645 214.183,82.4978 232.5,77.5 Z"/></g>
<g><path style="opacity:0.975" fill="#5af0b8" d="M 242.5,77.5 C 264.482,83.329 286.482,89.1624 308.5,95C 310.651,95.2649 312.318,96.2649 313.5,98C 326.862,149.781 340.528,201.448 354.5,253C 352.833,253.667 351.167,253.667 349.5,253C 327.481,247.162 305.481,241.329 283.5,235.5C 269.834,182.834 256.167,130.167 242.5,77.5 Z"/></g>
<g><path style="opacity:0.974" fill="#5af0b8" d="M 1.5,99.5 C 25.0951,106.031 48.7618,112.364 72.5,118.5C 83.1491,159.097 93.4825,199.763 103.5,240.5C 82.9015,245.816 62.2348,250.816 41.5,255.5C 28.4802,203.421 15.1469,151.421 1.5,99.5 Z"/></g>
<g><path style="opacity:0.918" fill="#5af0b8" d="M 110.5,109.5 C 111.376,109.369 112.043,109.702 112.5,110.5C 106.488,132.883 100.321,155.216 94,177.5C 88.6802,158.555 83.5135,139.555 78.5,120.5C 78.6082,119.558 78.9415,118.725 79.5,118C 89.9945,115.296 100.328,112.463 110.5,109.5 Z"/></g>
<g><path style="opacity:0.92" fill="#5af0b8" d="M 261.5,175.5 C 267.398,194.548 272.732,213.882 277.5,233.5C 277.182,234.647 276.516,235.481 275.5,236C 265.117,238.679 254.784,241.512 244.5,244.5C 244.167,244 243.833,243.5 243.5,243C 249.812,220.567 255.812,198.067 261.5,175.5 Z"/></g>
<g><path style="opacity:0.94" fill="#5af0b8" d="M -0.5,258.5 C -0.5,258.167 -0.5,257.833 -0.5,257.5C 5.98697,234.894 12.487,212.228 19,189.5C 25.168,212.839 31.3347,236.172 37.5,259.5C 31.4732,282.276 25.1399,304.943 18.5,327.5C 12.2985,304.35 5.96517,281.35 -0.5,258.5 Z"/></g>
<g><path style="opacity:0.975" fill="#5af0b8" d="M 274.5,241.5 C 275.649,241.791 276.316,242.624 276.5,244C 270.262,266.785 264.262,289.619 258.5,312.5C 205.836,326.332 153.169,339.832 100.5,353C 106.785,329.354 113.452,305.854 120.5,282.5C 172.031,269.119 223.365,255.452 274.5,241.5 Z"/></g>
<g><path style="opacity:0.97" fill="#5af0b8" d="M 282.5,241.5 C 306.5,247.5 330.5,253.5 354.5,259.5C 348.985,282.227 343.151,304.894 337,327.5C 336.804,329.286 335.971,330.619 334.5,331.5C 311.289,325.239 288.122,318.906 265,312.5C 270.501,288.814 276.335,265.147 282.5,241.5 Z"/></g>
<g><path style="opacity:0.931" fill="#5af0b8" d="M 106.5,244.5 C 128.611,250.36 150.611,256.527 172.5,263C 153.978,267.755 135.478,272.589 117,277.5C 95.5,271.667 74,265.833 52.5,260C 52.8333,259.667 53.1667,259.333 53.5,259C 71.4157,254.607 89.0824,249.774 106.5,244.5 Z"/></g>
<g><path style="opacity:0.97" fill="#5af0b8" d="M 41.5,263.5 C 64.2268,269.015 86.8935,274.849 109.5,281C 111.573,281.118 112.907,282.118 113.5,284C 107.472,307.116 101.138,330.116 94.5,353C 70.8565,347.339 47.1898,341.506 23.5,335.5C 29.4978,311.509 35.4978,287.509 41.5,263.5 Z"/></g>
<g><path style="opacity:0.941" fill="#5af0b8" d="M 262.5,354.5 C 260.167,354.5 257.833,354.5 255.5,354.5C 233.895,348.512 212.228,342.345 190.5,336C 213.833,329.833 237.167,323.667 260.5,317.5C 283.544,323.511 306.544,329.678 329.5,336C 307.105,342.346 284.772,348.513 262.5,354.5 Z"/></g>
</svg>
