<?xml version="1.0" encoding="UTF-8"?>
<svg version="1.1" xmlns="http://www.w3.org/2000/svg" width="356" height="355">
<path d="M0 0 C-0.66290877 7.49915542 -2.5984847 14.54828658 -4.5625 21.80078125 C-4.91783662 23.12725816 -5.27272817 24.45385436 -5.62719727 25.78056335 C-6.55583435 29.25105617 -7.49096791 32.71976648 -8.42736816 36.18817139 C-9.19186283 39.02426571 -9.95167486 41.86160446 -10.71125793 44.69901752 C-12.28046007 50.56018269 -13.85325503 56.42039238 -15.43359375 62.27856445 C-15.71259521 63.31366653 -15.99159668 64.34876862 -16.27905273 65.41523743 C-16.80240751 67.29158525 -17.38399826 69.15199479 -18 71 C-20.11408997 71.90336609 -20.11408997 71.90336609 -22.97583008 72.6628418 C-24.06490158 72.95810257 -25.15397308 73.25336334 -26.27604675 73.55757141 C-27.49077164 73.87244003 -28.70549652 74.18730865 -29.95703125 74.51171875 C-31.251784 74.85669227 -32.54627695 75.20264216 -33.8405304 75.54948425 C-37.44705168 76.51139857 -41.05810179 77.45514509 -44.67066193 78.39409637 C-47.03529475 79.00918081 -49.39906186 79.62749718 -51.76263428 80.24664307 C-63.14989675 83.22779498 -74.54662048 86.17177941 -85.94592285 89.10650635 C-93.17400371 90.96783613 -100.40096806 92.83349518 -107.62796402 94.69903183 C-110.30950036 95.39073464 -112.99138006 96.08109322 -115.67330933 96.77127075 C-125.12369588 99.2059345 -134.56422477 101.67405054 -143.99462891 104.18505859 C-145.95576415 104.70549555 -147.9169301 105.22581685 -149.87812805 105.74601746 C-153.61883392 106.7382585 -157.35695026 107.73958781 -161.09391785 108.74580383 C-162.77581172 109.1924762 -164.45779817 109.63880019 -166.13989258 110.0847168 C-166.91065187 110.29494413 -167.68141117 110.50517147 -168.47552681 110.72176933 C-173.77257888 112.11371056 -173.77257888 112.11371056 -176 111 C-173.71705942 102.18251563 -171.42301161 93.36801908 -169.11471081 84.5571394 C-168.04323567 80.46584666 -166.975621 76.3736268 -165.91674805 72.27905273 C-164.89483231 68.32797118 -163.86288262 64.37963686 -162.82390785 60.43300819 C-162.42919345 58.92646153 -162.03811056 57.4189586 -161.65071678 55.91051292 C-161.10768717 53.79862019 -160.55187037 51.69048965 -159.99291992 49.58276367 C-159.67981369 48.38141281 -159.36670746 47.18006195 -159.04411316 45.94230652 C-157.98910562 42.96929968 -157.35678267 41.96524649 -155 40 C-153.21716499 39.26391125 -153.21716499 39.26391125 -151.19949341 38.74638367 C-150.43065008 38.54375097 -149.66180676 38.34111828 -148.86966515 38.1323452 C-147.60797729 37.81679648 -147.60797729 37.81679648 -146.32080078 37.49487305 C-145.42921579 37.26308664 -144.53763081 37.03130024 -143.61902809 36.79249001 C-140.64689666 36.02240784 -137.67119892 35.26714828 -134.6953125 34.51171875 C-132.59922307 33.97150104 -130.50338177 33.43031979 -128.40777588 32.88822937 C-122.80512623 31.4414753 -117.199391 30.00703689 -111.59300995 28.57482147 C-105.84084547 27.10307856 -100.09160287 25.62002474 -94.34228516 24.13720703 C-87.52268535 22.37878895 -80.70298025 20.62080337 -73.88204956 18.86755371 C-61.45785009 15.67315571 -49.04044048 12.45582196 -36.640625 9.16796875 C-35.99321728 8.99634657 -35.34580956 8.82472439 -34.67878342 8.64790154 C-29.48315748 7.26978891 -24.28899373 5.88622838 -19.09576416 4.49911499 C-17.06674432 3.95724919 -15.03750419 3.4162073 -13.00799561 2.87617493 C-11.2559695 2.40991496 -9.5044912 1.94158866 -7.75372314 1.47062683 C-2.22511178 0 -2.22511178 0 0 0 Z " fill="#17206C" transform="translate(277,242)"/>
<path d="M0 0 C-0.65656006 7.7585659 -2.76192479 15.07549686 -4.81640625 22.5625 C-5.19659509 23.96341315 -5.57630232 25.36445708 -5.95555115 26.765625 C-6.94865009 30.42964048 -7.94822672 34.09185737 -8.94921875 37.75372314 C-9.97206026 41.50010413 -10.98868826 45.24817006 -12.00585938 48.99609375 C-13.99787048 56.3323808 -15.99673622 63.66677665 -18 71 C-54.70257353 80.75190104 -91.42029105 90.44568326 -128.15844727 100.06271362 C-132.14326741 101.1058493 -136.12778815 102.15011721 -140.11206055 103.19534302 C-144.83902805 104.43528736 -149.56663176 105.6727752 -154.29475021 106.90832329 C-156.05068805 107.36757866 -157.80641074 107.82765752 -159.56190872 108.28859138 C-161.96532328 108.91945407 -164.36950889 109.54728658 -166.77392578 110.17431641 C-167.83740612 110.45455579 -167.83740612 110.45455579 -168.92237091 110.74045658 C-173.77163828 112 -173.77163828 112 -176 112 C-172.94359087 98.47178788 -169.46487994 85.06293461 -165.8815918 71.66552734 C-165.24583725 69.2813245 -164.61474065 66.89587528 -163.98803711 64.50927734 C-163.0735307 61.0269089 -162.14579508 57.54831572 -161.21484375 54.0703125 C-160.93664291 53.00168976 -160.65844208 51.93306702 -160.37181091 50.83206177 C-160.10465775 49.84608002 -159.83750458 48.86009827 -159.56225586 47.84423828 C-159.33227402 46.97840118 -159.10229218 46.11256409 -158.86534119 45.2204895 C-157.90101555 42.74600316 -157.00431897 41.71395766 -155 40 C-153.21716499 39.26391125 -153.21716499 39.26391125 -151.19949341 38.74638367 C-150.43065008 38.54375097 -149.66180676 38.34111828 -148.86966515 38.1323452 C-147.60797729 37.81679648 -147.60797729 37.81679648 -146.32080078 37.49487305 C-145.42921579 37.26308664 -144.53763081 37.03130024 -143.61902809 36.79249001 C-140.64689666 36.02240784 -137.67119892 35.26714828 -134.6953125 34.51171875 C-132.59922307 33.97150104 -130.50338177 33.43031979 -128.40777588 32.88822937 C-122.80512623 31.4414753 -117.199391 30.00703689 -111.59300995 28.57482147 C-105.84084547 27.10307856 -100.09160287 25.62002474 -94.34228516 24.13720703 C-87.52268535 22.37878895 -80.70298025 20.62080337 -73.88204956 18.86755371 C-61.45785009 15.67315571 -49.04044048 12.45582196 -36.640625 9.16796875 C-35.99321728 8.99634657 -35.34580956 8.82472439 -34.67878342 8.64790154 C-29.48315748 7.26978891 -24.28899373 5.88622838 -19.09576416 4.49911499 C-17.06674432 3.95724919 -15.03750419 3.4162073 -13.00799561 2.87617493 C-11.2559695 2.40991496 -9.5044912 1.94158866 -7.75372314 1.47062683 C-2.22511178 0 -2.22511178 0 0 0 Z " fill="#17206C" transform="translate(255,1)"/>
<path d="M0 0 C13.56127927 3.04480761 26.97397332 6.59972927 40.3894043 10.22827148 C43.98192129 11.19950931 47.57583723 12.16544066 51.16992188 13.13085938 C53.45581273 13.74708593 55.74162313 14.36361103 58.02734375 14.98046875 C59.10112778 15.26899216 60.1749118 15.55751556 61.28123474 15.8547821 C62.26729202 16.12208633 63.2533493 16.38939056 64.26928711 16.66479492 C65.13734482 16.89921799 66.00540253 17.13364105 66.89976501 17.37516785 C69 18 69 18 71 19 C71.76908875 21.1096344 71.76908875 21.1096344 72.5144043 23.95922852 C72.94463646 25.57998795 72.94463646 25.57998795 73.38356018 27.23348999 C73.84918617 29.03797104 73.84918617 29.03797104 74.32421875 30.87890625 C74.65884628 32.14924713 74.99347382 33.41958801 75.33824158 34.72842407 C76.26860193 38.26128485 77.18876238 41.79673463 78.1072464 45.33269882 C79.07997421 49.0707017 80.061744 52.80632835 81.04248047 56.54223633 C82.7590393 63.08635105 84.46940214 69.6320622 86.17626953 76.17871094 C88.94297212 86.78947967 91.72330639 97.3966574 94.5045948 108.00361061 C96.88006263 117.06438325 99.25272054 126.12589215 101.625 135.1875 C101.88475491 136.17961109 102.14450981 137.17172218 102.41213608 138.19389725 C103.91256427 143.9253961 105.41156403 149.65726516 106.90844917 155.3896904 C107.36806107 157.14911163 107.82809249 158.90842334 108.28855705 160.66762161 C108.91830069 163.07393104 109.54652232 165.48063251 110.17431641 167.88745117 C110.36114329 168.60003366 110.54797018 169.31261614 110.74045849 170.04679203 C112 174.88572931 112 174.88572931 112 176 C104.14885099 175.40261853 96.89537252 173.53378499 89.3203125 171.4375 C88.01772199 171.08203596 86.71497443 170.72714698 85.41207886 170.37280273 C82.00862652 169.445424 78.60747591 168.5098645 75.20672607 167.57263184 C72.42488974 166.80741682 69.64150577 166.04792749 66.85801888 165.28874207 C61.1083264 163.72050626 55.35985958 162.14779293 49.61376953 160.56640625 C48.59944855 160.28740479 47.58512756 160.00840332 46.54006958 159.72094727 C44.67981244 159.19295098 42.83450349 158.61150116 41 158 C40.05794927 155.40896699 39.33517406 152.94358698 38.671875 150.27734375 C38.45009583 149.43040451 38.22831665 148.58346527 37.99981689 147.71086121 C37.23790886 144.78937781 36.49433827 141.86350539 35.75 138.9375 C35.20439262 136.83219061 34.65746978 134.72722179 34.109375 132.62255859 C33.00773145 128.38604747 31.91050288 124.14844275 30.81848907 119.90943909 C27.97498785 108.87362956 25.08984056 97.84879025 22.203125 86.82421875 C21.1721597 82.88615977 20.14125391 78.94808522 19.11035156 75.01000977 C18.85319744 74.02775641 18.59604332 73.04550306 18.33109665 72.03348446 C16.53825135 65.18434314 14.74815286 58.3344885 12.95996094 51.48413086 C12.59177183 50.07365683 12.59177183 50.07365683 12.21614456 48.63468838 C11.27466445 45.02772308 10.33327574 41.42073401 9.39225006 37.81365013 C8.96180412 36.16369352 8.53126755 34.51376055 8.10063553 32.8638525 C7.6869602 31.27870374 7.27355967 29.69348323 6.86045456 28.10818577 C5.77559431 23.94973064 4.6807425 19.79415776 3.57373047 15.64154053 C3.34108994 14.76624128 3.1084494 13.89094204 2.86875916 12.98911858 C2.42127441 11.30701846 1.97178752 9.62544934 1.52003479 7.94449043 C0 2.22331128 0 2.22331128 0 0 Z " fill="#17206C" transform="translate(243,78)"/>
<path d="M0 0 C2.13039871 0.53830962 4.26055095 1.07759463 6.390625 1.6171875 C7.40990082 1.87364548 7.40990082 1.87364548 8.44976807 2.13528442 C12.30232245 3.10901828 16.14341776 4.11312265 19.97460938 5.16796875 C27.45740329 7.20610804 34.79273195 9.07578276 42.49493408 10.06610107 C63.38461988 12.75751211 63.38461988 12.75751211 71 19 C77.24276342 27.74356586 78.29103542 38.89901491 79.99250793 49.26818848 C81.73453624 59.49385241 84.33748935 69.42626296 87.04296875 79.4296875 C87.27264973 80.28091061 87.5023307 81.13213371 87.73897171 82.00915146 C88.91119676 86.34914584 90.08923659 90.68753463 91.27001953 95.02520752 C93.34666915 102.6648087 95.38044635 110.31557004 97.39122963 117.97275162 C97.99935085 120.2811765 98.61510861 122.58747261 99.23124695 124.89376831 C99.60080406 126.29788041 99.96995277 127.7021001 100.33862305 129.10644531 C100.66074265 130.32180969 100.98286224 131.53717407 101.31474304 132.78936768 C101.92640523 135.65518667 102.14622502 138.08615763 102 141 C94.6564079 142.9630463 87.31105956 144.91939546 79.96342945 146.86727142 C76.55147886 147.7720121 73.14016719 148.67902629 69.73022461 149.59130859 C65.807625 150.640637 61.88243 151.67994141 57.95703125 152.71875 C56.73603226 153.04685669 55.51503326 153.37496338 54.2570343 153.7130127 C53.1162291 154.01332397 51.97542389 154.31363525 50.80004883 154.62304688 C49.2978051 155.02275696 49.2978051 155.02275696 47.76521301 155.43054199 C45.08867077 155.98173946 42.72306108 156.10963546 40 156 C39.69060989 154.80589005 39.38121979 153.61178009 39.06245422 152.38148499 C36.08060226 140.87362296 33.09720748 129.36616177 30.11246967 117.85904789 C28.579712 111.94959397 27.04741597 106.04002134 25.51635742 100.13012695 C23.73768767 93.26474144 21.9571948 86.39983028 20.17578125 79.53515625 C19.88164463 78.40116016 19.58750801 77.26716408 19.28445816 76.09880447 C15.96289446 63.29885977 12.61338371 50.50699425 9.20458984 37.72998047 C8.89948958 36.58547519 8.59438932 35.44096991 8.2800436 34.26178265 C6.82369264 28.80152061 5.36271831 23.3425595 3.8943634 17.88551331 C3.37633645 15.94901096 2.85840196 14.01248388 2.34057617 12.07592773 C1.98224858 10.7538585 1.98224858 10.7538585 1.61668205 9.4050808 C1.40203363 8.59979753 1.18738522 7.79451427 0.9662323 6.96482849 C0.77845813 6.26709037 0.59068396 5.56935225 0.39721966 4.85047054 C0 3 0 3 0 0 Z " fill="#17206C" transform="translate(2,100)"/>
<path d="M0 0 C7.81734107 0.66447399 15.23455464 2.77890548 22.78125 4.81640625 C24.20458886 5.19658221 25.62805293 5.57628968 27.05163574 5.95555115 C30.77477863 6.94877992 34.49620022 7.94831174 38.21728516 8.94921875 C42.02403516 9.97195201 45.83239816 10.98864184 49.640625 12.00585938 C57.09533101 13.99803442 64.54822687 15.99687892 72 18 C71.34343994 25.7585659 69.23807521 33.07549686 67.18359375 40.5625 C66.80340491 41.96341315 66.42369768 43.36445708 66.04444885 44.765625 C65.05134991 48.42964048 64.05177328 52.09185737 63.05078125 55.75372314 C62.02793974 59.50010413 61.01131174 63.24817006 59.99414062 66.99609375 C58.00212952 74.3323808 56.00326378 81.66677665 54 89 C49.61670735 90.2562783 46.64367655 89.65222806 42.28198242 88.46118164 C41.62776306 88.2857634 40.9735437 88.11034515 40.29949951 87.92961121 C38.14854022 87.35011556 36.00215329 86.75527336 33.85546875 86.16015625 C32.36071715 85.7542085 30.86570249 85.34922823 29.37043762 84.94517517 C25.44361894 83.88127994 21.52050512 82.80430374 17.59802246 81.72454834 C13.59159487 80.62418575 9.58179676 79.53625387 5.57226562 78.44726562 C-2.28850499 76.31031703 -10.14540455 74.15953505 -18 72 C-17.40384713 63.82919884 -15.35339128 56.21593258 -13.18359375 48.33984375 C-12.80329388 46.94039014 -12.42358878 45.54077478 -12.04444885 44.14100647 C-11.0524694 40.48491117 -10.05250697 36.83104741 -9.05078125 33.1776123 C-8.02700525 29.43809931 -7.01091151 25.69650063 -5.99414062 21.95507812 C-4.00354351 14.63467348 -2.00449564 7.31661263 0 0 Z " fill="#17206C" transform="translate(20,23)"/>
<path d="M0 0 C7.7585659 0.65656006 15.07549686 2.76192479 22.5625 4.81640625 C23.96341315 5.19659509 25.36445708 5.57630232 26.765625 5.95555115 C30.42964048 6.94865009 34.09185737 7.94822672 37.75372314 8.94921875 C41.50010413 9.97206026 45.24817006 10.98868826 48.99609375 12.00585938 C56.3323808 13.99787048 63.66677665 15.99673622 71 18 C72.45659425 21.87793846 71.52859835 24.6881771 70.46118164 28.60449219 C70.2857634 29.25856552 70.11034515 29.91263885 69.92961121 30.58653259 C69.3489341 32.74257251 68.75464717 34.89460701 68.16015625 37.046875 C67.7543188 38.54308601 67.34933655 40.03952922 66.94517517 41.53619385 C65.88016854 45.47092912 64.80357661 49.40240334 63.72454834 53.33331299 C62.62511148 57.34660721 61.53665119 61.3628744 60.44726562 65.37890625 C58.30891387 73.25555679 56.15831485 81.12879636 54 89 C50.10369864 90.4688008 47.242162 89.51872868 43.30371094 88.46118164 C42.63988403 88.2857634 41.97605713 88.11034515 41.29211426 87.92961121 C39.1036621 87.3488834 36.91913229 86.75461933 34.734375 86.16015625 C33.21573909 85.75432361 31.6968757 85.34934127 30.17779541 84.94517517 C26.18392476 83.88012047 22.19324819 82.80354482 18.203125 81.72454834 C14.12946879 80.62515172 10.05290038 79.53666842 5.9765625 78.44726562 C-2.0185172 76.30885307 -10.01025583 74.15826174 -18 72 C-17.33552601 64.18265893 -15.22109452 56.76544536 -13.18359375 49.21875 C-12.80341779 47.79541114 -12.42371032 46.37194707 -12.04444885 44.94836426 C-11.05122008 41.22522137 -10.05168826 37.50379978 -9.05078125 33.78271484 C-8.02804799 29.97596484 -7.01135816 26.16760184 -5.99414062 22.359375 C-4.00196558 14.90466899 -2.00312108 7.45177313 0 0 Z " fill="#17206C" transform="translate(42,264)"/>
<path d="M0 0 C7.81734107 0.66447399 15.23455464 2.77890548 22.78125 4.81640625 C24.20458886 5.19658221 25.62805293 5.57628968 27.05163574 5.95555115 C30.77477863 6.94877992 34.49620022 7.94831174 38.21728516 8.94921875 C42.02403516 9.97195201 45.83239816 10.98864184 49.640625 12.00585938 C57.09533101 13.99803442 64.54822687 15.99687892 72 18 C71.40123143 22.66926713 70.54132951 27.12317478 69.32592773 31.66967773 C69.15997101 32.29492844 68.99401428 32.92017914 68.82302856 33.56437683 C68.28035497 35.60515184 67.73203176 37.64436108 67.18359375 39.68359375 C66.80352704 41.10839112 66.42381761 42.53328384 66.04444885 43.95826721 C65.05011732 47.68934268 64.05096916 51.41911144 63.05078125 55.14862061 C62.02896484 58.96222901 61.01175206 62.77706471 59.99414062 66.59179688 C58.00057415 74.0624004 56.00191297 81.53162824 54 89 C50.12206154 90.45659425 47.3118229 89.52859835 43.39550781 88.46118164 C42.74143448 88.2857634 42.08736115 88.11034515 41.41346741 87.92961121 C39.25742749 87.3489341 37.10539299 86.75464717 34.953125 86.16015625 C33.45691399 85.7543188 31.96047078 85.34933655 30.46380615 84.94517517 C26.52907088 83.88016854 22.59759666 82.80357661 18.66668701 81.72454834 C14.65339279 80.62511148 10.6371256 79.53665119 6.62109375 78.44726562 C-1.25555679 76.30891387 -9.12879636 74.15831485 -17 72 C-18.19858958 67.72919852 -17.71579603 64.85757466 -16.56884766 60.60498047 C-16.06304672 58.69807938 -16.06304672 58.69807938 -15.54702759 56.75265503 C-15.16963014 55.37409531 -14.79196877 53.99560782 -14.4140625 52.6171875 C-14.0329613 51.1968722 -13.65279715 49.77630516 -13.27352905 48.35549927 C-12.27414965 44.62220069 -11.26159935 40.89259671 -10.24639893 37.16357422 C-9.21576553 33.36781449 -8.19852863 29.56846945 -7.1796875 25.76953125 C-5.68962219 20.22332377 -4.19493781 14.67840652 -2.68994141 9.13623047 C-2.38714264 8.0210202 -2.08434387 6.90580994 -1.77236938 5.75680542 C-1.23069914 3.82343065 -0.63492871 1.90478613 0 0 Z " fill="#17206C" transform="translate(261,1)"/>
<path d="M0 0 C7.81734107 0.66447399 15.23455464 2.77890548 22.78125 4.81640625 C24.20458886 5.19658221 25.62805293 5.57628968 27.05163574 5.95555115 C30.77477863 6.94877992 34.49620022 7.94831174 38.21728516 8.94921875 C42.02403516 9.97195201 45.83239816 10.98864184 49.640625 12.00585938 C57.09533101 13.99803442 64.54822687 15.99687892 72 18 C71.32986829 25.72970683 69.29436505 33.05286628 67.2890625 40.52734375 C66.91643499 41.9259633 66.54390857 43.32460979 66.17147827 44.72328186 C65.39364517 47.63828739 64.61123554 50.55202192 63.82617188 53.46508789 C62.81962176 57.20341032 61.82993124 60.94598006 60.84415627 64.68982601 C60.08237398 67.57195844 59.30921139 70.45094556 58.53278732 73.32916451 C58.16263614 74.70880405 57.79667369 76.08957438 57.4349556 77.4714489 C56.9303867 79.39422944 56.40825462 81.31237554 55.88525391 83.23022461 C55.59292877 84.32306259 55.30060364 85.41590057 54.99942017 86.54185486 C54.66961151 87.35304276 54.33980286 88.16423065 54 89 C50.14921042 90.28359653 48.32724474 89.50915062 44.41723633 88.46118164 C43.75355545 88.2857634 43.08987457 88.11034515 42.40608215 87.92961121 C40.21253455 87.34771617 38.02236966 86.7540064 35.83203125 86.16015625 C34.31193688 85.75443226 32.79164487 85.34944808 31.27116394 84.94517517 C27.26936513 83.87902455 23.27033384 82.80283098 19.27178955 81.72454834 C15.19127555 80.62606137 11.10823305 79.5370599 7.02539062 78.44726562 C-0.98558306 76.30747071 -8.99365885 74.15706316 -17 72 C-18.2562783 67.61670735 -17.65222806 64.64367655 -16.46118164 60.28198242 C-16.19805428 59.30065338 -16.19805428 59.30065338 -15.92961121 58.29949951 C-15.35011556 56.14854022 -14.75527336 54.00215329 -14.16015625 51.85546875 C-13.7542085 50.36071715 -13.34922823 48.86570249 -12.94517517 47.37043762 C-11.88127994 43.44361894 -10.80430374 39.52050512 -9.72454834 35.59802246 C-8.62418575 31.59159487 -7.53625387 27.58179676 -6.44726562 23.57226562 C-4.31031703 15.71149501 -2.15953505 7.85459545 0 0 Z " fill="#17206C" transform="translate(283,242)"/>
<path d="M0 0 C2 1 2 1 2.88589478 3.540802 C3.18345673 4.67218597 3.48101868 5.80356995 3.78759766 6.96923828 C4.03675179 7.90356438 4.03675179 7.90356438 4.29093933 8.85676575 C4.84023901 10.92586604 5.37749219 12.99787759 5.9140625 15.0703125 C6.29188424 16.50955182 6.67017642 17.94866771 7.04891968 19.38766479 C7.84263626 22.41104965 8.63037981 25.43591337 9.4140625 28.46191406 C10.41594214 32.32836134 11.43267904 36.19071183 12.45405006 40.05204964 C13.23922054 43.02740059 14.01619245 46.00484634 14.79078293 48.98296738 C15.16220909 50.40689356 15.53618205 51.83015804 15.91279984 53.25271988 C16.4406088 55.25121665 16.95723747 57.25229639 17.47119141 59.25439453 C17.76716217 60.39055206 18.06313293 61.52670959 18.36807251 62.69729614 C19.51894744 68.71222526 19.02818587 73.77035201 17.47119141 79.65380859 C17.30859329 80.277453 17.14599518 80.90109741 16.97846985 81.54364014 C16.44478502 83.58095792 15.89865089 85.61468172 15.3515625 87.6484375 C14.97468497 89.07079413 14.59834033 90.49329206 14.22250366 91.91592407 C13.43616113 94.88443842 12.64366484 97.85122038 11.84667969 100.81689453 C10.82410799 104.6238661 9.81674912 108.4346709 8.81383705 112.24686241 C8.04079471 115.17885437 7.26002788 118.1087451 6.4768486 121.03804398 C6.10210662 122.44329021 5.72974722 123.84917401 5.3597908 125.25568771 C4.84357353 127.21339734 4.31587491 129.16806879 3.78759766 131.12255859 C3.49003571 132.23617767 3.19247375 133.34979675 2.88589478 134.49716187 C2 137 2 137 0 138 C-2.95820747 127.02144194 -5.90599216 116.04018124 -8.83920288 105.05491638 C-10.13825116 100.19642475 -11.44989678 95.34192596 -12.78807068 90.49406433 C-13.61855982 87.47788337 -14.43248772 84.45721974 -15.25 81.4375 C-15.54914307 80.37748779 -15.84828613 79.31747559 -16.15649414 78.2253418 C-16.41938232 77.24218994 -16.68227051 76.25903809 -16.953125 75.24609375 C-17.18161133 74.41779053 -17.41009766 73.5894873 -17.64550781 72.73608398 C-18.71787991 64.45917348 -15.57075108 56.06107782 -13.4375 48.1640625 C-13.08220028 46.83517989 -12.72730802 45.50618827 -12.37280273 44.17709351 C-11.63296915 41.40770658 -10.88966313 38.6392849 -10.14355469 35.87158203 C-9.18676935 32.32204551 -8.23661124 28.77077776 -7.28874207 25.21885109 C-6.55795762 22.48179377 -5.82482213 19.74537101 -5.09085083 17.00916672 C-4.73952162 15.69913725 -4.38866868 14.38897996 -4.03829956 13.07869339 C-3.54989942 11.25450021 -3.05823251 9.4311826 -2.56640625 7.60791016 C-2.28740479 6.57058746 -2.00840332 5.53326477 -1.72094727 4.46450806 C-1 2 -1 2 0 0 Z " fill="#17206C" transform="translate(337,27)"/>
<path d="M0 0 C1.02283081 0.25221817 2.04566162 0.50443634 3.0994873 0.76429749 C6.93368212 1.73543681 10.74845822 2.76980884 14.5625 3.81640625 C15.96341315 4.19659509 17.36445708 4.57630232 18.765625 4.95555115 C22.42964048 5.94865009 26.09185737 6.94822672 29.75372314 7.94921875 C33.50010413 8.97206026 37.24817006 9.98868826 40.99609375 11.00585938 C48.3323808 12.99787048 55.66677665 14.99673622 63 17 C60.43172203 19.56827797 58.42842473 19.86231429 54.91723633 20.78759766 C53.98269119 21.03675179 53.98269119 21.03675179 53.02926636 21.29093933 C50.96531818 21.83905642 48.89886004 22.37691788 46.83203125 22.9140625 C45.39424926 23.29199157 43.95656233 23.67028245 42.51896667 24.04891968 C39.50137857 24.84191286 36.48249142 25.6297093 33.46264648 26.4140625 C29.60429325 27.41676 25.7497582 28.43333381 21.89613819 29.45405006 C18.92505591 30.23912334 15.95190256 31.01610698 12.9780941 31.79078293 C11.55693949 32.16213947 10.1364653 32.53611058 8.71671486 32.91279984 C6.72311274 33.44056956 4.72692706 33.95719375 2.72973633 34.47119141 C1.596595 34.76716217 0.46345367 35.06313293 -0.70402527 35.36807251 C-6.68213792 36.51423837 -11.70472332 36.04632911 -17.54614258 34.47119141 C-18.80046585 34.13729401 -20.05478912 33.80339661 -21.34712219 33.4593811 C-22.69636523 33.09049822 -24.04549912 32.72121593 -25.39453125 32.3515625 C-26.79205653 31.97463673 -28.1897389 31.59829298 -29.58757019 31.22250366 C-32.50483469 30.43615296 -35.42035122 29.64370526 -38.3347168 28.84667969 C-42.07224532 27.82493061 -45.81338964 26.81722987 -49.55588245 25.81383705 C-52.43710413 25.03997163 -55.31649334 24.25946633 -58.19534874 23.4768486 C-59.57476342 23.10257324 -60.95469852 22.73021049 -62.33515358 22.3597908 C-64.25884919 21.84238557 -66.17991299 21.3152249 -68.10083008 20.78759766 C-69.19446365 20.49003571 -70.28809723 20.19247375 -71.41487122 19.88589478 C-74 19 -74 19 -76 17 C-67.27669515 14.61848975 -58.54925491 12.25296938 -49.81620026 9.90746212 C-45.76073105 8.81772121 -41.70686902 7.72263575 -37.65625 6.61499023 C-33.74336111 5.54522375 -29.82682031 4.48995046 -25.90739441 3.44439888 C-24.41658579 3.0440354 -22.92713831 2.63856576 -21.43916321 2.22779655 C-6.64628593 -1.84913754 -6.64628593 -1.84913754 0 0 Z " fill="#17206C" transform="translate(267,319)"/>
<path d="M0 0 C1.7956225 3.28044868 2.83443924 6.55722167 3.85107422 10.15112305 C4.20418671 11.39729904 4.55729919 12.64347504 4.92111206 13.92741394 C6.3073751 18.90374726 7.67306802 23.88573454 9.02108574 28.87256145 C10.04068043 32.64398391 11.07504854 36.40975793 12.1484375 40.16625977 C20.90294617 70.87530372 20.90294617 70.87530372 15.83721924 83.69613647 C14.02367911 88.68664406 12.8730535 93.8985535 11.546875 99.03515625 C10.92538446 101.35055422 10.30035545 103.66500518 9.671875 105.97851562 C9.35669922 107.14036377 9.04152344 108.30221191 8.71679688 109.49926758 C8.39775391 110.67513428 8.07871094 111.85100098 7.75 113.0625 C7.0934971 115.490166 6.43724527 117.91789991 5.78125 120.34570312 C4.1903901 126.23125384 2.59644692 132.11596244 1 138 C0.34 138 -0.32 138 -1 138 C-24.33731191 65.99215635 -24.33731191 65.99215635 -9.69677734 31.23730469 C-7.03839008 24.83288301 -5.51679236 18.1613201 -3.875 11.4375 C-3.33937861 9.39224653 -2.79619229 7.34894439 -2.2421875 5.30859375 C-2.0241748 4.49189209 -1.80616211 3.67519043 -1.58154297 2.83374023 C-1 1 -1 1 0 0 Z " fill="#17206C" transform="translate(19,190)"/>
<path d="M0 0 C1.88148491 0.5008461 1.88148491 0.5008461 3.80097961 1.0118103 C5.15022265 1.38069319 6.49935654 1.74997548 7.84838867 2.11962891 C9.24591395 2.49655468 10.64359632 2.87289842 12.04142761 3.24868774 C14.95869211 4.03503844 17.87420864 4.82748615 20.78857422 5.62451172 C24.52610275 6.6462608 28.26724707 7.65396154 32.00973988 8.65735435 C34.89096155 9.43121977 37.77035077 10.21172507 40.64920616 10.9943428 C42.02862084 11.36861817 43.40855594 11.74098092 44.789011 12.1114006 C46.71270661 12.62880584 48.63377041 13.15596651 50.5546875 13.68359375 C51.64832108 13.9811557 52.74195465 14.27871765 53.86872864 14.58529663 C56.45385742 15.47119141 56.45385742 15.47119141 58.45385742 17.47119141 C49.63689145 19.87840624 40.81391442 22.26176759 31.98253059 24.61554146 C27.88121613 25.70942486 23.78237106 26.81117189 19.68823242 27.93164062 C15.73151679 29.01417751 11.76955579 30.0750731 7.80318832 31.12166977 C6.29662024 31.52315412 4.79204107 31.93218576 3.28967667 32.34912491 C-5.17179163 34.69164666 -11.95679771 36.20481999 -20.54614258 33.47119141 C-22.62081134 32.94150274 -24.69702729 32.4178523 -26.77441406 31.89892578 C-29.07295835 31.29112966 -31.3705273 30.67963611 -33.66723633 30.06494141 C-34.88895035 29.73957397 -36.11066437 29.41420654 -37.36940002 29.07897949 C-39.93389393 28.39477805 -42.49797816 27.7092142 -45.06152344 27.02148438 C-48.34388833 26.14130458 -51.62834177 25.2692039 -54.91339016 24.39910126 C-58.06186033 23.5636126 -61.20816711 22.72005612 -64.35473633 21.87744141 C-65.53281357 21.5659314 -66.71089081 21.25442139 -67.92466736 20.93347168 C-69.01332596 20.63976685 -70.10198456 20.34606201 -71.22363281 20.04345703 C-72.18164291 19.78745728 -73.13965302 19.53145752 -74.12669373 19.2677002 C-76.54614258 18.47119141 -76.54614258 18.47119141 -79.54614258 16.47119141 C-72.61354592 13.6824732 -65.5508765 11.77136442 -58.32348633 9.89697266 C-57.06403702 9.56827682 -55.80458771 9.23958099 -54.50697327 8.90092468 C-51.85439494 8.20960279 -49.20093072 7.52180851 -46.546875 6.83618164 C-43.16000898 5.96065278 -39.77634936 5.07335272 -36.39334774 4.18302631 C-33.14287835 3.32999147 -29.88925968 2.4892501 -26.63598633 1.64697266 C-25.42853256 1.32827713 -24.2210788 1.0095816 -22.97703552 0.68122864 C-21.84218216 0.39060043 -20.7073288 0.09997223 -19.53808594 -0.19946289 C-18.54739609 -0.45688766 -17.55670624 -0.71431244 -16.53599548 -0.97953796 C-10.69362866 -2.05284846 -5.6977615 -1.53640041 0 0 Z " fill="#17206C" transform="translate(107.546142578125,1.52880859375)"/>
<path d="M0 0 C4.17632133 1.60601888 8.42232737 2.75698674 12.75927734 3.84228516 C13.46920334 4.02015564 14.17912933 4.19802612 14.91056824 4.38128662 C16.30503875 4.72779672 17.69992474 5.07263959 19.09524536 5.41571045 C22.26118431 6.1977709 25.41571404 7.01384215 28.56787109 7.85009766 C29.5967041 8.11749756 30.62553711 8.38489746 31.68554688 8.66040039 C33.99755859 9.47900391 33.99755859 9.47900391 34.99755859 11.47900391 C27.49833758 13.54013256 19.99040567 15.56680943 12.47558594 17.5703125 C9.92269448 18.25520303 7.37186259 18.94782074 4.82324219 19.6484375 C1.14957703 20.65686647 -2.53071207 21.6368464 -6.21337891 22.61181641 C-7.90773575 23.08664963 -7.90773575 23.08664963 -9.63632202 23.57107544 C-16.84538609 25.44240673 -21.88878208 25.56440689 -29.00244141 23.47900391 C-31.09423987 22.94370573 -33.18621155 22.40908413 -35.27832031 21.875 C-37.59608786 21.25406338 -39.91294665 20.62972721 -42.22900391 20.00244141 C-43.45783295 19.67233063 -44.68666199 19.34221985 -45.95272827 19.00210571 C-49.18529801 18.13310548 -52.41710343 17.26136983 -55.64855957 16.38824463 C-58.9599 15.49427872 -62.27222978 14.60399413 -65.58447266 13.71337891 C-72.05803575 11.9719408 -78.53061474 10.22688351 -85.00244141 8.47900391 C-84.00244141 6.47900391 -84.00244141 6.47900391 -82.10562134 5.6464386 C-53.00941658 -3.82531811 -29.1842463 -11.4850698 0 0 Z " fill="#17206C" transform="translate(138.00244140625,252.52099609375)"/>
<path d="M0 0 C1.93398357 2.90097535 2.63340648 4.8223302 3.51220703 8.14233398 C3.93241623 9.71427773 3.93241623 9.71427773 4.3611145 11.31797791 C4.65702484 12.44925613 4.95293518 13.58053436 5.2578125 14.74609375 C5.56572723 15.90875259 5.87364197 17.07141144 6.19088745 18.26930237 C6.84078483 20.72902108 7.48785662 23.18948783 8.13232422 25.65063477 C9.12065455 29.42092294 10.12021082 33.18810529 11.12109375 36.95507812 C11.75067606 39.3435719 12.37960429 41.7322382 13.0078125 44.12109375 C13.3077713 45.25034775 13.6077301 46.37960175 13.91677856 47.54307556 C14.19061371 48.59419022 14.46444885 49.64530487 14.74658203 50.72827148 C14.98925812 51.65187973 15.2319342 52.57548798 15.48196411 53.52708435 C16 56 16 56 16 60 C4.72849546 63.29464911 -6.50475822 66.56872437 -18 69 C-16.56677246 61.18340651 -14.63176675 53.54775853 -12.55859375 45.87890625 C-12.06698509 44.04633522 -12.06698509 44.04633522 -11.56544495 42.17674255 C-10.8768957 39.61228965 -10.18720706 37.04818086 -9.49536133 34.48461914 C-8.60932368 31.20142344 -7.72689787 27.91727107 -6.84577847 24.63275242 C-6.00127159 21.48530848 -5.15497277 18.33834719 -4.30859375 15.19140625 C-3.83358681 13.42429039 -3.83358681 13.42429039 -3.34898376 11.62147522 C-3.0552034 10.53281662 -2.76142303 9.44415802 -2.45874023 8.32250977 C-2.20051987 7.36449966 -1.9422995 6.40648956 -1.67625427 5.41944885 C-1.1672369 3.59832691 -0.59796186 1.79388557 0 0 Z " fill="#17206C" transform="translate(262,176)"/>
<path d="M0 0 C1.14240793 4.37745803 2.28165877 8.75572071 3.41796875 13.13476562 C3.80511817 14.62490115 4.19313521 16.11481154 4.58203125 17.60449219 C5.14029574 19.74355665 5.69545326 21.88340664 6.25 24.0234375 C6.51248535 25.02508438 6.51248535 25.02508438 6.78027344 26.04696655 C8 30.77225659 8 30.77225659 8 33 C-5.10696253 30.02037242 -18.11372681 26.69095682 -31.10766602 23.25390625 C-34.48219196 22.3632036 -37.85921558 21.48240027 -41.23632812 20.6015625 C-43.38557608 20.03445799 -45.53467068 19.46677188 -47.68359375 18.8984375 C-48.69175644 18.63694916 -49.69991913 18.37546082 -50.7386322 18.10604858 C-52.12762474 17.73523666 -52.12762474 17.73523666 -53.54467773 17.35693359 C-54.35944077 17.14249603 -55.1742038 16.92805847 -56.01365662 16.7071228 C-58 16 -58 16 -60 14 C-53.47877678 11.73465395 -46.90632409 9.81468315 -40.234375 8.046875 C-39.23794983 7.78239563 -38.24152466 7.51791626 -37.21490479 7.24542236 C-35.12452441 6.69247088 -33.03367585 6.14128654 -30.94238281 5.59179688 C-27.74274956 4.74808814 -24.54726505 3.8897092 -21.3515625 3.03125 C-19.31274021 2.49387947 -17.27368544 1.95739003 -15.234375 1.421875 C-14.28222107 1.16363953 -13.33006714 0.90540405 -12.34906006 0.63934326 C-11.45753235 0.40870178 -10.56600464 0.1780603 -9.64746094 -0.05957031 C-8.86852478 -0.26592102 -8.08958862 -0.47227173 -7.28704834 -0.68487549 C-4.63094991 -1.05085014 -2.58450633 -0.65360502 0 0 Z " fill="#17206C" transform="translate(238,79)"/>
<path d="M0 0 C-2.97962758 13.10696253 -6.30904318 26.11372681 -9.74609375 39.10766602 C-10.6367964 42.48219196 -11.51759973 45.85921558 -12.3984375 49.23632812 C-12.96554201 51.38557608 -13.53322812 53.53467068 -14.1015625 55.68359375 C-14.36305084 56.69175644 -14.62453918 57.69991913 -14.89395142 58.7386322 C-15.14115936 59.66462723 -15.38836731 60.59062225 -15.64306641 61.54467773 C-15.85750397 62.35944077 -16.07194153 63.1742038 -16.2928772 64.01365662 C-17 66 -17 66 -19 68 C-22.57437404 55.80507681 -25.99767324 43.56667182 -29.31350708 31.29901123 C-29.72868164 29.76936091 -30.14767548 28.24074198 -30.57052612 26.7131958 C-31.17088092 24.5406772 -31.75695842 22.36476118 -32.33984375 20.1875 C-32.68394287 18.92292969 -33.02804199 17.65835938 -33.38256836 16.35546875 C-33.979989 13.10875098 -33.92236927 11.13299711 -33 8 C-28.62254197 6.85759207 -24.24427929 5.71834123 -19.86523438 4.58203125 C-18.37509885 4.19488183 -16.88518846 3.80686479 -15.39550781 3.41796875 C-13.25644335 2.85970426 -11.11659336 2.30454674 -8.9765625 1.75 C-7.97491562 1.48751465 -7.97491562 1.48751465 -6.95303345 1.21972656 C-2.22774341 0 -2.22774341 0 0 0 Z " fill="#17206B" transform="translate(113,110)"/>
</svg>
